<svg width="32" height="46" viewBox="0 0 32 46" fill="none" xmlns="http://www.w3.org/2000/svg">
<path d="M16 0C24.8366 0 32 7.16344 32 16C32 24.8366 28.8366 35 16 46C3.16344 35 0 24.8366 0 16C0 7.16344 7.16344 0 16 0ZM16 6C10.4772 6 6 10.4772 6 16C6 21.5228 10.4772 26 16 26C21.5228 26 26 21.5228 26 16C26 10.4772 21.5228 6 16 6Z" fill="#879721"/>
<circle cx="16" cy="17" r="12" fill="white"/>
<g clip-path="url(#clip0_359_4399)">
<path d="M16.2479 12.8394C16.8468 12.8394 17.4324 12.6618 17.9304 12.329C18.4284 11.9963 18.8165 11.5233 19.0458 10.9699C19.275 10.4166 19.3349 9.80764 19.2181 9.22019C19.1012 8.63274 18.8128 8.09312 18.3893 7.66959C17.9658 7.24606 17.4261 6.95764 16.8387 6.84078C16.2512 6.72393 15.6423 6.7839 15.089 7.01312C14.5356 7.24233 14.0626 7.63049 13.7298 8.12851C13.3971 8.62653 13.2195 9.21204 13.2195 9.811C13.2195 10.6142 13.5385 11.3845 14.1065 11.9524C14.6744 12.5203 15.4447 12.8394 16.2479 12.8394ZM16.2479 8.2968C16.5474 8.2968 16.8401 8.38561 17.0891 8.55199C17.3381 8.71837 17.5322 8.95486 17.6468 9.23154C17.7614 9.50823 17.7914 9.81268 17.733 10.1064C17.6746 10.4001 17.5303 10.6699 17.3186 10.8817C17.1068 11.0935 16.837 11.2377 16.5433 11.2961C16.2496 11.3545 15.9451 11.3246 15.6684 11.2099C15.3917 11.0953 15.1552 10.9013 14.9889 10.6523C14.8225 10.4032 14.7337 10.1105 14.7337 9.811C14.7337 9.40941 14.8932 9.02427 15.1772 8.7403C15.4611 8.45633 15.8463 8.2968 16.2479 8.2968ZM8.67685 13.5965C8.67685 13.297 8.76566 13.0043 8.93204 12.7553C9.09843 12.5063 9.33491 12.3122 9.6116 12.1976C9.88828 12.083 10.1927 12.053 10.4865 12.1114C10.7802 12.1698 11.05 12.314 11.2618 12.5258C11.4735 12.7376 11.6177 13.0074 11.6762 13.3011C11.7346 13.5948 11.7046 13.8993 11.59 14.176C11.4754 14.4527 11.2813 14.6891 11.0323 14.8555C10.7833 15.0219 10.4905 15.1107 10.1911 15.1107C9.78947 15.1107 9.40432 14.9512 9.12035 14.6672C8.83639 14.3833 8.67685 13.9981 8.67685 13.5965ZM25.1665 14.9792C25.0413 15.136 24.8588 15.2366 24.6594 15.259C24.4599 15.2814 24.2597 15.2236 24.1028 15.0984C23.994 15.0142 21.8589 13.4233 18.4889 15.1561C18.4624 16.1191 18.3675 17.0789 18.205 18.0284L21.2741 20.5836C21.3912 20.6811 21.4761 20.8117 21.5179 20.9582C21.5596 21.1048 21.5561 21.2605 21.5078 21.4051L19.9936 25.9477C19.9301 26.1382 19.7936 26.2957 19.6139 26.3855C19.4343 26.4753 19.2264 26.4901 19.0359 26.4266C18.8454 26.3631 18.6879 26.2265 18.5981 26.0469C18.5083 25.8673 18.4935 25.6593 18.557 25.4688L19.9075 21.4164L17.8179 19.6751C17.6814 20.1355 17.5203 20.5882 17.3353 21.0313C16.034 24.1297 13.7031 26.2013 10.4078 27.1903C10.2171 27.2427 10.0135 27.2185 9.84044 27.1228C9.66739 27.0271 9.53867 26.8674 9.4818 26.678C9.42493 26.4886 9.44443 26.2845 9.53612 26.1093C9.62781 25.9341 9.78441 25.8017 9.97245 25.7404C15.7151 24.0171 16.705 18.9057 16.9208 16.1205C14.3551 17.7492 12.327 18.1391 10.9822 18.1391C10.3487 18.1413 9.71943 18.0366 9.1207 17.8297C8.96055 17.7597 8.82954 17.6364 8.74991 17.4809C8.67027 17.3253 8.64692 17.1469 8.6838 16.9761C8.72069 16.8053 8.81555 16.6525 8.95228 16.5436C9.08901 16.4347 9.2592 16.3765 9.43396 16.3789C9.54217 16.3787 9.6491 16.4023 9.74721 16.448C9.74721 16.448 12.2797 17.4587 16.5791 14.5363C21.5277 11.1728 24.9072 13.8009 25.0501 13.9145C25.1277 13.9767 25.1923 14.0537 25.2401 14.1409C25.2879 14.2281 25.3181 14.3238 25.3289 14.4227C25.3397 14.5216 25.331 14.6216 25.3031 14.7171C25.2752 14.8126 25.2288 14.9016 25.1665 14.9792Z" fill="black"/>
</g>
<defs>
<clipPath id="clip0_359_4399">
<rect width="20" height="20" fill="white" transform="translate(7 7)"/>
</clipPath>
</defs>
</svg>
