<svg width="32" height="46" viewBox="0 0 32 46" fill="none" xmlns="http://www.w3.org/2000/svg">
<path d="M16 0C24.8366 0 32 7.16344 32 16C32 24.8366 28.8366 35 16 46C3.16344 35 0 24.8366 0 16C0 7.16344 7.16344 0 16 0ZM16 6C10.4772 6 6 10.4772 6 16C6 21.5228 10.4772 26 16 26C21.5228 26 26 21.5228 26 16C26 10.4772 21.5228 6 16 6Z" fill="#2A81CA"/>
<circle cx="16" cy="17" r="12" fill="white"/>
<path d="M22.6778 25L16.6806 19.0111L18.0028 17.6907L24 23.6796L22.6778 25ZM9.78611 24.3398C8.84167 23.3967 8.1412 22.3356 7.68472 21.1567C7.22824 19.9778 7 18.7753 7 17.5492C7 16.3232 7.22824 15.1285 7.68472 13.9653C8.1412 12.8021 8.84167 11.749 9.78611 10.8058C10.7306 9.86269 11.7891 9.15927 12.9618 8.69556C14.1345 8.23185 15.3347 8 16.5625 8C17.7903 8 18.9905 8.23185 20.1632 8.69556C21.3359 9.15927 22.3944 9.86269 23.3389 10.8058L9.78611 24.3398ZM9.975 21.4632L11.25 20.19C10.9981 19.8599 10.7581 19.522 10.5299 19.1761C10.3016 18.8303 10.0931 18.4845 9.90417 18.1387C9.71528 17.7929 9.55 17.4471 9.40833 17.1012C9.26667 16.7554 9.14074 16.4175 9.03056 16.0874C8.85741 17.0148 8.8456 17.9422 8.99514 18.8696C9.14468 19.797 9.4713 20.6616 9.975 21.4632ZM12.6194 18.8696L17.8611 13.5881C17.1843 13.0693 16.5035 12.6489 15.8188 12.3266C15.134 12.0044 14.4926 11.7843 13.8944 11.6664C13.2963 11.5485 12.7572 11.5289 12.2771 11.6075C11.797 11.6861 11.4231 11.859 11.1556 12.1262C10.888 12.4092 10.7148 12.7903 10.6361 13.2698C10.5574 13.7492 10.5771 14.2915 10.6951 14.8967C10.8132 15.5018 11.0336 16.1424 11.3563 16.8183C11.6789 17.4942 12.1 18.178 12.6194 18.8696ZM19.1833 12.2677L20.5056 10.9945C19.6713 10.4914 18.7898 10.1613 17.8611 10.0042C16.9324 9.84697 16.0037 9.86269 15.075 10.0513C15.4213 10.1613 15.7676 10.2871 16.1139 10.4286C16.4602 10.57 16.8065 10.7312 17.1528 10.9119C17.4991 11.0927 17.8414 11.297 18.1799 11.525C18.5183 11.7529 18.8528 12.0005 19.1833 12.2677Z" fill="black"/>
</svg>
