<svg width="32" height="46" viewBox="0 0 32 46" fill="none" xmlns="http://www.w3.org/2000/svg">
<path d="M16 0C24.8366 0 32 7.16344 32 16C32 24.8366 28.8366 35 16 46C3.16344 35 0 24.8366 0 16C0 7.16344 7.16344 0 16 0ZM16 6C10.4772 6 6 10.4772 6 16C6 21.5228 10.4772 26 16 26C21.5228 26 26 21.5228 26 16C26 10.4772 21.5228 6 16 6Z" fill="#2A81CA"/>
<circle cx="16" cy="17" r="12" fill="white"/>
<path d="M19.2551 12.9063C19.7527 12.9063 20.239 12.7587 20.6527 12.4823C21.0664 12.2059 21.3889 11.813 21.5793 11.3533C21.7697 10.8936 21.8195 10.3878 21.7224 9.89985C21.6254 9.41187 21.3858 8.96363 21.0339 8.61181C20.6821 8.25999 20.2339 8.0204 19.7459 7.92334C19.2579 7.82627 18.7521 7.87609 18.2924 8.06649C17.8328 8.25689 17.4399 8.57933 17.1635 8.99302C16.887 9.40671 16.7395 9.89308 16.7395 10.3906C16.7395 11.0578 17.0045 11.6977 17.4763 12.1694C17.9481 12.6412 18.5879 12.9063 19.2551 12.9063ZM19.2551 9.3125C19.4684 9.3125 19.6768 9.37573 19.8541 9.4942C20.0314 9.61266 20.1696 9.78104 20.2512 9.97805C20.3328 10.175 20.3541 10.3918 20.3125 10.601C20.2709 10.8101 20.1683 11.0022 20.0175 11.153C19.8667 11.3038 19.6746 11.4064 19.4655 11.448C19.2563 11.4896 19.0395 11.4683 18.8425 11.3867C18.6455 11.3051 18.4772 11.1669 18.3587 10.9896C18.2402 10.8123 18.177 10.6039 18.177 10.3906C18.177 10.1047 18.2906 9.83046 18.4928 9.62828C18.695 9.42609 18.9692 9.3125 19.2551 9.3125ZM22.4895 17.9375C21.7787 17.9375 21.0839 18.1483 20.4929 18.5432C19.9019 18.938 19.4413 19.4993 19.1693 20.156C18.8973 20.8127 18.8261 21.5352 18.9648 22.2324C19.1035 22.9295 19.4457 23.5698 19.9483 24.0724C20.4509 24.575 21.0913 24.9173 21.7884 25.056C22.4855 25.1946 23.2081 25.1234 23.8648 24.8514C24.5214 24.5794 25.0827 24.1188 25.4776 23.5278C25.8725 22.9368 26.0833 22.242 26.0833 21.5313C26.0833 20.5781 25.7046 19.664 25.0307 18.9901C24.3567 18.3161 23.4426 17.9375 22.4895 17.9375ZM22.4895 23.6875C22.063 23.6875 21.6461 23.561 21.2916 23.3241C20.937 23.0872 20.6606 22.7504 20.4974 22.3564C20.3342 21.9624 20.2915 21.5289 20.3747 21.1106C20.4579 20.6923 20.6632 20.3081 20.9648 20.0066C21.2664 19.705 21.6506 19.4996 22.0688 19.4164C22.4871 19.3332 22.9207 19.3759 23.3147 19.5391C23.7087 19.7023 24.0454 19.9787 24.2824 20.3333C24.5193 20.6879 24.6458 21.1048 24.6458 21.5313C24.6458 22.1031 24.4186 22.6516 24.0142 23.056C23.6098 23.4603 23.0614 23.6875 22.4895 23.6875ZM9.552 17.9375C8.84123 17.9375 8.14641 18.1483 7.55542 18.5432C6.96443 18.938 6.50381 19.4993 6.23181 20.156C5.95981 20.8127 5.88864 21.5352 6.02731 22.2324C6.16597 22.9295 6.50824 23.5698 7.01084 24.0724C7.51343 24.575 8.15378 24.9173 8.8509 25.056C9.54802 25.1946 10.2706 25.1234 10.9273 24.8514C11.5839 24.5794 12.1452 24.1188 12.5401 23.5278C12.935 22.9368 13.1458 22.242 13.1458 21.5313C13.1458 21.0593 13.0528 20.592 12.8722 20.156C12.6916 19.72 12.4269 19.3238 12.0932 18.9901C11.7595 18.6564 11.3633 18.3917 10.9273 18.2111C10.4913 18.0305 10.0239 17.9375 9.552 17.9375ZM9.552 23.6875C9.12554 23.6875 8.70865 23.561 8.35406 23.3241C7.99946 23.0872 7.72309 22.7504 7.55989 22.3564C7.39669 21.9624 7.35399 21.5289 7.43719 21.1106C7.52038 20.6923 7.72575 20.3081 8.0273 20.0066C8.32886 19.705 8.71307 19.4996 9.13134 19.4164C9.54961 19.3332 9.98316 19.3759 10.3772 19.5391C10.7712 19.7023 11.1079 19.9787 11.3449 20.3333C11.5818 20.6879 11.7083 21.1048 11.7083 21.5313C11.7083 22.1031 11.4811 22.6516 11.0767 23.056C10.6723 23.4603 10.1239 23.6875 9.552 23.6875ZM21.7708 16.5H18.177C18.0826 16.5001 17.9891 16.4815 17.9018 16.4455C17.8146 16.4094 17.7353 16.3565 17.6685 16.2898L15.302 13.9224L13.4431 15.7813L16.5293 18.8665C16.596 18.9333 16.6489 19.0126 16.685 19.0998C16.721 19.1871 16.7396 19.2806 16.7395 19.375V23.6875C16.7395 23.8781 16.6638 24.0609 16.529 24.1957C16.3942 24.3305 16.2114 24.4063 16.0208 24.4063C15.8301 24.4063 15.6473 24.3305 15.5125 24.1957C15.3777 24.0609 15.302 23.8781 15.302 23.6875V19.6724L11.9185 16.2898C11.8517 16.223 11.7986 16.1437 11.7625 16.0565C11.7263 15.9692 11.7077 15.8757 11.7077 15.7813C11.7077 15.6868 11.7263 15.5933 11.7625 15.506C11.7986 15.4188 11.8517 15.3395 11.9185 15.2727L14.7935 12.3977C14.8602 12.3309 14.9395 12.2779 15.0268 12.2417C15.114 12.2056 15.2075 12.1869 15.302 12.1869C15.3965 12.1869 15.49 12.2056 15.5772 12.2417C15.6645 12.2779 15.7438 12.3309 15.8105 12.3977L18.4744 15.0625H21.7708C21.9614 15.0625 22.1442 15.1382 22.279 15.273C22.4138 15.4078 22.4895 15.5906 22.4895 15.7813C22.4895 15.9719 22.4138 16.1547 22.279 16.2895C22.1442 16.4243 21.9614 16.5 21.7708 16.5Z" fill="black"/>
</svg>
