<svg width="32" height="46" viewBox="0 0 32 46" fill="none" xmlns="http://www.w3.org/2000/svg">
<path d="M16 0C24.8366 0 32 7.16344 32 16C32 24.8366 28.8366 35 16 46C3.16344 35 0 24.8366 0 16C0 7.16344 7.16344 0 16 0ZM16 6C10.4772 6 6 10.4772 6 16C6 21.5228 10.4772 26 16 26C21.5228 26 26 21.5228 26 16C26 10.4772 21.5228 6 16 6Z" fill="#A4E0B8"/>
<circle cx="16" cy="17" r="12" fill="white"/>
<path d="M7.7125 17.5895C7.4875 17.1474 7.3125 16.6991 7.1875 16.2447C7.0625 15.7904 7 15.3298 7 14.8632C7 13.4877 7.475 12.3333 8.425 11.4C9.375 10.4667 10.55 10 11.95 10C12.7375 10 13.4875 10.1627 14.2 10.4882C14.9125 10.8136 15.5125 11.2649 16 11.8421C16.4875 11.2649 17.0875 10.8136 17.8 10.4882C18.5125 10.1627 19.2625 10 20.05 10C21.45 10 22.625 10.4667 23.575 11.4C24.525 12.3333 25 13.4877 25 14.8632C25 15.3298 24.9375 15.7904 24.8125 16.2447C24.6875 16.6991 24.5125 17.1474 24.2875 17.5895C24.15 17.3561 23.9875 17.1474 23.8 16.9632C23.6125 16.7789 23.3938 16.6316 23.1438 16.5211C23.2563 16.2386 23.3438 15.9623 23.4062 15.6921C23.4688 15.4219 23.5 15.1456 23.5 14.8632C23.5 13.9053 23.1688 13.1009 22.5063 12.45C21.8438 11.7991 21.025 11.4737 20.05 11.4737C19.0375 11.4737 18.2594 11.7469 17.7156 12.2934C17.1719 12.8399 16.6 13.4509 16 14.1263C15.4 13.4386 14.8281 12.8246 14.2844 12.2842C13.7406 11.7439 12.9625 11.4737 11.95 11.4737C10.975 11.4737 10.1563 11.7991 9.49375 12.45C8.83125 13.1009 8.5 13.9053 8.5 14.8632C8.5 15.1456 8.53125 15.4219 8.59375 15.6921C8.65625 15.9623 8.74375 16.2386 8.85625 16.5211C8.60625 16.6316 8.3875 16.7789 8.2 16.9632C8.0125 17.1474 7.85 17.3561 7.7125 17.5895ZM7 24V22.8395C7 22.2991 7.27812 21.8662 7.83438 21.5408C8.39063 21.2154 9.1125 21.0526 10 21.0526C10.1625 21.0526 10.3188 21.0557 10.4688 21.0618C10.6188 21.068 10.7625 21.0833 10.9 21.1079C10.725 21.3535 10.5938 21.6175 10.5063 21.9C10.4188 22.1825 10.375 22.4833 10.375 22.8026V24H7ZM11.5 24V22.8026C11.5 22.0044 11.9156 21.3596 12.7469 20.8684C13.5781 20.3772 14.6625 20.1316 16 20.1316C17.35 20.1316 18.4375 20.3772 19.2625 20.8684C20.0875 21.3596 20.5 22.0044 20.5 22.8026V24H11.5ZM21.625 24V22.8026C21.625 22.4833 21.5844 22.1825 21.5031 21.9C21.4219 21.6175 21.3 21.3535 21.1375 21.1079C21.275 21.0833 21.4156 21.068 21.5594 21.0618C21.7031 21.0557 21.85 21.0526 22 21.0526C22.9 21.0526 23.625 21.2154 24.175 21.5408C24.725 21.8662 25 22.2991 25 22.8395V24H21.625ZM16 21.6053C15.2875 21.6053 14.65 21.6974 14.0875 21.8816C13.525 22.0658 13.1938 22.2807 13.0938 22.5263H18.925C18.8125 22.2807 18.4781 22.0658 17.9219 21.8816C17.3656 21.6974 16.725 21.6053 16 21.6053ZM10 20.3158C9.5875 20.3158 9.23438 20.1715 8.94063 19.8829C8.64688 19.5943 8.5 19.2474 8.5 18.8421C8.5 18.4246 8.64688 18.0746 8.94063 17.7921C9.23438 17.5096 9.5875 17.3684 10 17.3684C10.425 17.3684 10.7813 17.5096 11.0688 17.7921C11.3563 18.0746 11.5 18.4246 11.5 18.8421C11.5 19.2474 11.3563 19.5943 11.0688 19.8829C10.7813 20.1715 10.425 20.3158 10 20.3158ZM22 20.3158C21.5875 20.3158 21.2344 20.1715 20.9406 19.8829C20.6469 19.5943 20.5 19.2474 20.5 18.8421C20.5 18.4246 20.6469 18.0746 20.9406 17.7921C21.2344 17.5096 21.5875 17.3684 22 17.3684C22.425 17.3684 22.7813 17.5096 23.0688 17.7921C23.3563 18.0746 23.5 18.4246 23.5 18.8421C23.5 19.2474 23.3563 19.5943 23.0688 19.8829C22.7813 20.1715 22.425 20.3158 22 20.3158ZM16 19.5789C15.375 19.5789 14.8438 19.364 14.4063 18.9342C13.9688 18.5044 13.75 17.9825 13.75 17.3684C13.75 16.7421 13.9688 16.2171 14.4063 15.7934C14.8438 15.3697 15.375 15.1579 16 15.1579C16.6375 15.1579 17.1719 15.3697 17.6031 15.7934C18.0344 16.2171 18.25 16.7421 18.25 17.3684C18.25 17.9825 18.0344 18.5044 17.6031 18.9342C17.1719 19.364 16.6375 19.5789 16 19.5789ZM16 16.6316C15.7875 16.6316 15.6094 16.7022 15.4656 16.8434C15.3219 16.9846 15.25 17.1596 15.25 17.3684C15.25 17.5772 15.3219 17.7522 15.4656 17.8934C15.6094 18.0346 15.7875 18.1053 16 18.1053C16.2125 18.1053 16.3906 18.0346 16.5344 17.8934C16.6781 17.7522 16.75 17.5772 16.75 17.3684C16.75 17.1596 16.6781 16.9846 16.5344 16.8434C16.3906 16.7022 16.2125 16.6316 16 16.6316Z" fill="black"/>
</svg>
