<svg width="32" height="46" viewBox="0 0 32 46" fill="none" xmlns="http://www.w3.org/2000/svg">
<path d="M16 0C24.8366 0 32 7.16344 32 16C32 24.8366 28.8366 35 16 46C3.16344 35 0 24.8366 0 16C0 7.16344 7.16344 0 16 0ZM16 6C10.4772 6 6 10.4772 6 16C6 21.5228 10.4772 26 16 26C21.5228 26 26 21.5228 26 16C26 10.4772 21.5228 6 16 6Z" fill="#F39200"/>
<circle cx="16" cy="17" r="12" fill="white"/>
<g clip-path="url(#clip0_359_4405)">
<path d="M11.0959 14.279V10.2138C11.0959 10.0341 11.1673 9.86177 11.2944 9.73471C11.4214 9.60764 11.5938 9.53626 11.7735 9.53626C11.9532 9.53626 12.1255 9.60764 12.2526 9.73471C12.3796 9.86177 12.451 10.0341 12.451 10.2138V14.279C12.451 14.4587 12.3796 14.631 12.2526 14.7581C12.1255 14.8852 11.9532 14.9565 11.7735 14.9565C11.5938 14.9565 11.4214 14.8852 11.2944 14.7581C11.1673 14.631 11.0959 14.4587 11.0959 14.279ZM23.2916 10.2138V25.7971C23.2916 25.9768 23.2202 26.1492 23.0931 26.2762C22.9661 26.4033 22.7937 26.4747 22.614 26.4747C22.4344 26.4747 22.262 26.4033 22.135 26.2762C22.0079 26.1492 21.9365 25.9768 21.9365 25.7971V21.7319H17.8713C17.6916 21.7319 17.5193 21.6605 17.3922 21.5335C17.2651 21.4064 17.1938 21.2341 17.1938 21.0544C17.2252 19.4314 17.4302 17.8165 17.8052 16.2371C18.6335 12.8079 20.2037 10.5094 22.3473 9.59131C22.4503 9.54718 22.5627 9.52929 22.6743 9.53926C22.7859 9.54923 22.8934 9.58674 22.9869 9.64843C23.0805 9.71011 23.1573 9.79405 23.2105 9.89272C23.2637 9.99139 23.2915 10.1017 23.2916 10.2138ZM21.9365 11.391C19.212 13.4719 18.6784 18.5407 18.5742 20.3768H21.9365V11.391ZM15.1518 10.1029C15.1386 10.0139 15.1077 9.92845 15.0611 9.85154C15.0144 9.77462 14.953 9.70776 14.8802 9.65485C14.8075 9.60195 14.7249 9.56406 14.6374 9.54339C14.5498 9.52273 14.4591 9.5197 14.3703 9.53449C14.2816 9.54927 14.1967 9.58158 14.1206 9.62952C14.0445 9.67746 13.9787 9.74008 13.927 9.81372C13.8754 9.88736 13.8389 9.97054 13.8197 10.0584C13.8006 10.1463 13.7991 10.2371 13.8154 10.3256L14.4836 14.3324C14.4836 15.0511 14.1981 15.7405 13.6898 16.2487C13.1816 16.757 12.4922 17.0425 11.7735 17.0425C11.0547 17.0425 10.3654 16.757 9.85711 16.2487C9.34886 15.7405 9.06333 15.0511 9.06333 14.3324L9.7307 10.3256C9.747 10.2371 9.74553 10.1463 9.72636 10.0584C9.70719 9.97054 9.67072 9.88736 9.61906 9.81372C9.56741 9.74008 9.50161 9.67746 9.4255 9.62952C9.34939 9.58158 9.2645 9.54927 9.17577 9.53449C9.08705 9.5197 8.99627 9.52273 8.90872 9.54339C8.82118 9.56406 8.73863 9.60195 8.66588 9.65485C8.59314 9.70776 8.53165 9.77462 8.48502 9.85154C8.43839 9.92845 8.40753 10.0139 8.39426 10.1029L7.71673 14.1681C7.71093 14.2048 7.7081 14.2419 7.70826 14.279C7.70961 15.2393 8.05034 16.1681 8.67025 16.9015C9.29015 17.6348 10.1493 18.1254 11.0959 18.2866V25.7971C11.0959 25.9768 11.1673 26.1492 11.2944 26.2762C11.4214 26.4033 11.5938 26.4747 11.7735 26.4747C11.9532 26.4747 12.1255 26.4033 12.2526 26.2762C12.3796 26.1492 12.451 25.9768 12.451 25.7971V18.2866C13.3976 18.1254 14.2568 17.6348 14.8767 16.9015C15.4966 16.1681 15.8373 15.2393 15.8387 14.279C15.8386 14.2418 15.8355 14.2047 15.8294 14.1681L15.1518 10.1029Z" fill="black"/>
</g>
<defs>
<clipPath id="clip0_359_4405">
<rect width="17" height="17" fill="white" transform="translate(7 9)"/>
</clipPath>
</defs>
</svg>
