<svg width="32" height="46" viewBox="0 0 32 46" fill="none" xmlns="http://www.w3.org/2000/svg">
<path d="M16 0C24.8366 0 32 7.16344 32 16C32 24.8366 28.8366 35 16 46C3.16344 35 0 24.8366 0 16C0 7.16344 7.16344 0 16 0ZM16 6C10.4772 6 6 10.4772 6 16C6 21.5228 10.4772 26 16 26C21.5228 26 26 21.5228 26 16C26 10.4772 21.5228 6 16 6Z" fill="#2A81CA"/>
<circle cx="16" cy="17" r="12" fill="white"/>
<path d="M24.5288 20.4075L21.9566 19.1218C21.2386 18.7658 20.6348 18.2157 20.2135 17.534C19.7922 16.8523 19.5703 16.0662 19.573 15.2648V12.6243C19.573 12.4337 19.4973 12.2509 19.3625 12.1161C19.2277 11.9813 19.0449 11.9056 18.8542 11.9056C17.7109 11.9044 16.6147 11.4497 15.8062 10.6412C14.9977 9.83268 14.5429 8.73647 14.5417 7.59309C14.5416 7.45938 14.5042 7.32835 14.4337 7.21474C14.3632 7.10113 14.2624 7.00944 14.1426 6.94998C14.0229 6.89052 13.8889 6.86564 13.7558 6.87815C13.6226 6.89066 13.4956 6.94005 13.3891 7.02078L6.46749 12.265L6.44952 12.2793C6.29297 12.4061 6.16481 12.5644 6.07338 12.744C5.98194 12.9235 5.92926 13.1202 5.91876 13.3214C5.90825 13.5226 5.94016 13.7238 6.0124 13.9118C6.08464 14.0999 6.19562 14.2707 6.33812 14.4131L16.5542 24.6329C16.621 24.6996 16.7003 24.7525 16.7876 24.7886C16.8748 24.8246 16.9683 24.8432 17.0628 24.8431H23.8855C24.2667 24.8431 24.6324 24.6916 24.902 24.4221C25.1715 24.1525 25.323 23.7868 25.323 23.4056V21.6932C25.3239 21.4261 25.2499 21.1641 25.1095 20.9369C24.9692 20.7097 24.768 20.5263 24.5288 20.4075ZM23.8855 23.4056H17.3601L7.35425 13.3997L8.51054 12.5228L11.9956 16.0079C12.1304 16.143 12.3135 16.219 12.5044 16.2191C12.6953 16.2193 12.8784 16.1436 13.0135 16.0087C13.1486 15.8739 13.2246 15.6909 13.2248 15.5C13.2249 15.3091 13.1493 15.1259 13.0144 14.9908L9.66683 11.6459L13.2606 8.92277C13.533 10.0607 14.1452 11.0888 15.016 11.8704C15.8868 12.6519 16.9748 13.1499 18.1355 13.2982V15.2648C18.1319 16.3334 18.4278 17.3816 18.9897 18.2906C19.5515 19.1995 20.3568 19.9329 21.3142 20.4075L23.8855 21.6932V23.4056ZM10.1214 21.9681H6.6355C6.44487 21.9681 6.26206 21.8924 6.12727 21.7576C5.99247 21.6228 5.91675 21.44 5.91675 21.2493C5.91675 21.0587 5.99247 20.8759 6.12727 20.7411C6.26206 20.6063 6.44487 20.5306 6.6355 20.5306H10.1214C10.3121 20.5306 10.4949 20.6063 10.6297 20.7411C10.7645 20.8759 10.8402 21.0587 10.8402 21.2493C10.8402 21.44 10.7645 21.6228 10.6297 21.7576C10.4949 21.8924 10.3121 21.9681 10.1214 21.9681ZM13.7152 24.1243C13.7152 24.315 13.6395 24.4978 13.5047 24.6326C13.3699 24.7674 13.1871 24.8431 12.9964 24.8431H8.073C7.88237 24.8431 7.69956 24.7674 7.56477 24.6326C7.42997 24.4978 7.35425 24.315 7.35425 24.1243C7.35425 23.9337 7.42997 23.7509 7.56477 23.6161C7.69956 23.4813 7.88237 23.4056 8.073 23.4056H12.9964C13.1871 23.4056 13.3699 23.4813 13.5047 23.6161C13.6395 23.7509 13.7152 23.9337 13.7152 24.1243Z" fill="black"/>
</svg>
