<svg width="32" height="46" viewBox="0 0 32 46" fill="none" xmlns="http://www.w3.org/2000/svg">
<path d="M16 0C24.8366 0 32 7.16344 32 16C32 24.8366 28.8366 35 16 46C3.16344 35 0 24.8366 0 16C0 7.16344 7.16344 0 16 0ZM16 6C10.4772 6 6 10.4772 6 16C6 21.5228 10.4772 26 16 26C21.5228 26 26 21.5228 26 16C26 10.4772 21.5228 6 16 6Z" fill="#F77B7B"/>
<circle cx="16" cy="17" r="12" fill="white"/>
<path d="M25.0427 12.3805C24.9182 12.2408 24.7655 12.1291 24.5947 12.0527C24.4239 11.9763 24.2389 11.9371 24.0518 11.9375H20.1208C20.1208 10.8932 19.706 9.89169 18.9675 9.15327C18.2291 8.41484 17.2276 8 16.1833 8C15.139 8 14.1375 8.41484 13.3991 9.15327C12.6607 9.89169 12.2458 10.8932 12.2458 11.9375H8.31488C8.12888 11.938 7.94508 11.9777 7.77546 12.054C7.60585 12.1304 7.45423 12.2416 7.3305 12.3805C7.20781 12.5188 7.11573 12.6816 7.06032 12.858C7.0049 13.0344 6.98739 13.2206 7.00894 13.4042L8.17871 23.248C8.21665 23.5687 8.37151 23.8642 8.61366 24.0779C8.85581 24.2916 9.16825 24.4085 9.4912 24.4063H22.8828C23.2058 24.4085 23.5182 24.2916 23.7604 24.0779C24.0025 23.8642 24.1574 23.5687 24.1953 23.248L25.3651 13.4042C25.3865 13.2205 25.3689 13.0343 25.3133 12.8579C25.2578 12.6815 25.1655 12.5188 25.0427 12.3805ZM16.1833 9.3125C16.8795 9.3125 17.5472 9.58906 18.0395 10.0813C18.5318 10.5736 18.8083 11.2413 18.8083 11.9375H13.5583C13.5583 11.2413 13.8349 10.5736 14.3272 10.0813C14.8194 9.58906 15.4871 9.3125 16.1833 9.3125ZM22.8902 23.0938C22.8878 23.0946 22.8852 23.0946 22.8828 23.0938H9.47726L8.31488 13.25H24.0583L22.8902 23.0938Z" fill="black"/>
</svg>
